HIERARCHY
ROOT Hips
{
  OFFSET 0 0 0
  CHANNELS 6 Xposition Yposition Zposition Zrotation Xrotation Yrotation
  JOINT LeftUpLeg
  {
    OFFSET 4.06525 -3.90732 0.41711
    CHANNELS 3 Zrotation Xrotation Yrotation
    JOINT LeftLeg
    {
      OFFSET 0.00023 -18.4821 0.00367
      CHANNELS 3 Zrotation Xrotation Yrotation
      JOINT LeftFoot
      {
        OFFSET -0.00172 -15.2898 -0.02629
        CHANNELS 3 Zrotation Xrotation Yrotation
        JOINT LeftToeBase
        {
          OFFSET 0.36743 -3.19131 5.54287
          CHANNELS 3 Zrotation Xrotation Yrotation
          JOINT LeftToeBase2
          {
            OFFSET 0.08751 0.04849 1.36758
            CHANNELS 3 Zrotation Xrotation Yrotation
            JOINT LeftToeBase3
            {
              OFFSET 0.07484 0.06785 1.16707
            }
          }
        }
      }
    }
  }
  JOINT RightUpLeg
  {
    OFFSET -4.06526 -3.90731 0.41712
    CHANNELS 3 Zrotation Xrotation Yrotation
    JOINT RightLeg
    {
      OFFSET -0.00029 -18.4821 0.0044
      CHANNELS 3 Zrotation Xrotation Yrotation
      JOINT RightFoot
      {
        OFFSET 0.0016 -15.2898 -0.02569
        CHANNELS 3 Zrotation Xrotation Yrotation
        JOINT RightToeBase
        {
          OFFSET -0.3542 -3.19109 5.54386
          CHANNELS 3 Zrotation Xrotation Yrotation
          JOINT RightToeBase2
          {
            OFFSET -0.08424 0.04854 1.36778
            CHANNELS 3 Zrotation Xrotation Yrotation
            JOINT RightToeBase3
            {
              OFFSET -0.07205 0.0679 1.16725
            }
          }
        }
      }
    }
  }
  JOINT Spine
  {
    OFFSET 1e-005 4.46517 -0.10224
    CHANNELS 3 Zrotation Xrotation Yrotation
    JOINT Spine1
    {
      OFFSET 1e-005 4.46212 -0.1824
      CHANNELS 3 Zrotation Xrotation Yrotation
      JOINT Spine2
      {
        OFFSET 0 4.37937 -0.881
        CHANNELS 3 Zrotation Xrotation Yrotation
        JOINT Spine3
        {
          OFFSET 1e-005 4.68286 0.21414
          CHANNELS 3 Zrotation Xrotation Yrotation
          JOINT Neck
          {
            OFFSET 0 1.76964 0.82454
            CHANNELS 3 Zrotation Xrotation Yrotation
            JOINT Head
            {
              OFFSET 0 1.6961 0.93145
              CHANNELS 3 Zrotation Xrotation Yrotation
              JOINT Head_End
              {
                OFFSET 1e-005 7.8375 1.52603
              }
            }
          }
          JOINT LeftShoulder
          {
            OFFSET 1.19381 -0.75881 -0.02768
            CHANNELS 3 Zrotation Xrotation Yrotation
            JOINT LeftArm
            {
              OFFSET 5.18779 -2e-005 1e-005
              CHANNELS 3 Zrotation Xrotation Yrotation
              JOINT LeftForeArm
              {
                OFFSET 12.7364 -4e-005 2e-005
                CHANNELS 3 Zrotation Xrotation Yrotation
                JOINT LeftHand
                {
                  OFFSET 9.21452 -2e-005 1e-005
                  CHANNELS 3 Zrotation Xrotation Yrotation
                }
              }
            }
          }
          JOINT RightShoulder
          {
            OFFSET -1.19381 -0.75881 -0.02767
            CHANNELS 3 Zrotation Xrotation Yrotation
            JOINT RightArm
            {
              OFFSET -5.18779 1e-005 -1e-005
              CHANNELS 3 Zrotation Xrotation Yrotation
              JOINT RightForeArm
              {
                OFFSET -12.7364 3e-005 -2e-005
                CHANNELS 3 Zrotation Xrotation Yrotation
                JOINT RightHand
                {
                  OFFSET -9.21452 2e-005 -1e-005
                  CHANNELS 3 Zrotation Xrotation Yrotation
                }
              }
            }
          }
        }
      }
    }
  }
}
MOTION
Frames: 12
Frame Time: 	0.0166667
9.10718e-009 41.1841 -5.0367e-009 0.128898 0.714925 -0.00160608 2.34586 4.59568 -0.358869  -0.0158697 1.46456 0.0187422  -2.62965 -7.31105 -0.335239  0.00600188 0.0823346 0.00790549  -0 0 -0   -3.62278 5.24193 0.315633  0.00567489 0.0413759 -0.00454531  3.5963 -6.49974 -0.325003  0.00314246 0.200479 9.84759e-005  -0 0 -0   -0.140439 0.01163 -0.109715  -0.000575144 0.0367617 -0.229712  -0.000551396 0.0366943 -0.229724  -0.000527335 0.036627 -0.229736  -0.0775069 -2.65235 0.297004  -0.458816 0.963933 -0.165548   -17.7561 6.04434 4.71586  -54.3706 27.5114 -2.24288  2.63472 -1.02079 -7.11929  1.00888 -2.67052 0.503487  17.1123 4.33147 -5.91662  53.2792 28.8497 0.778477  -3.52471 -1.30144 11.4093  -8.4788 -9.14927 -0.535663 
-0.000392478 41.184 0.00705289 0.129222 0.716375 0.0285997 2.3461 4.59636 -0.366693  -0.0157832 1.46703 0.0186496  -2.63119 -7.31319 -0.371151  0.00600195 0.0827182 0.00782238  -0 0 -0   -3.61986 5.26234 0.274609  0.00570302 0.0346842 -0.00462501  3.58658 -6.52164 -0.335442  0.00313146 0.20127 0.000161907  -0 0 -0   -0.139684 0.0110481 -0.109355  -0.000542223 0.0342578 -0.228299  -0.000518591 0.0341901 -0.228308  -0.000494648 0.0341226 -0.228318  -0.0771609 -2.65488 0.310024  -0.458457 1.02094 -0.13751   -17.7639 5.92704 4.6662  -54.379 27.8595 -2.04649  2.69451 -1.04843 -7.28455  1.02364 -2.97902 0.630246  17.0852 4.33564 -5.90074  53.3137 28.8989 0.704777  -3.55284 -1.31517 11.5038  -8.45274 -9.26955 -0.57759 
-0.000368815 41.184 0.0117511 0.130171 0.718033 0.0285877 2.34516 4.5971 -0.366675  -0.0156822 1.46826 0.0185445  -2.62677 -7.31466 -0.371316  0.00600208 0.0827182 0.00773336  -0 0 -0   -3.62068 5.26231 0.274522  0.00572781 0.0312664 -0.0047079  3.58656 -6.52162 -0.335444  0.00312609 0.20127 0.000229521  -0 0 -0   -0.138921 0.0103506 -0.108976  -0.00050387 0.0318461 -0.227393  -0.000480354 0.0317783 -0.227402  -0.00045653 0.0317106 -0.227411  -0.0773529 -2.65292 0.309901  -0.458457 1.02094 -0.13751   -17.7639 5.92704 4.6662  -54.379 27.8595 -2.04649  2.69451 -1.04843 -7.28455  1.02364 -2.97902 0.630246  17.0853 4.33644 -5.90062  53.3137 28.8989 0.704777  -3.55284 -1.31517 11.5038  -8.45274 -9.26955 -0.57759 
-0.000370796 41.1841 0.0151431 0.131191 0.719977 0.0337275 2.34378 4.59789 -0.365566  -0.015567 1.46909 0.0184268  -2.61837 -7.31429 -0.352469  0.00600432 0.0669358 0.00763831  -0 0 -0   -3.62274 5.26285 0.287013  0.00574907 0.0286009 -0.00479409  3.60025 -6.51185 -0.329919  0.00312656 0.185812 0.000301376  -0 0 -0   -0.138152 0.00956761 -0.10858  -0.000459619 0.0296797 -0.226601  -0.000436219 0.0296119 -0.22661  -0.000412513 0.0295443 -0.226618  -0.0780708 -2.65011 0.296323  -0.471039 1.02604 -0.151702   -17.7651 5.95041 4.67114  -54.3731 27.8455 -2.05773  2.69788 -1.05 -7.29388  1.08536 -2.95332 0.546689  17.0806 4.33571 -5.89779  53.2934 28.859 0.72641  -3.55371 -1.3156 11.5067  -8.5107 -9.21783 -0.539145 
-0.000623194 41.1841 0.0171758 0.131913 0.722714 0.0646082 2.34452 4.59871 -0.392521  -0.0154373 1.47005 0.0182962  -2.60547 -7.33339 -0.36215  0.00600056 0.0964179 0.00753714  -0 0 -0   -3.62212 5.28509 0.2682  0.00576686 0.0273919 -0.0048837  3.60449 -6.54647 -0.359388  0.00313256 0.23348 0.000377531  -0 0 -0   -0.137379 0.00872908 -0.108169  -0.000409973 0.0276055 -0.225911  -0.000386688 0.0275379 -0.225919  -0.000363102 0.0274704 -0.225927  -0.077612 -2.64888 0.30569  -0.469983 1.06214 -0.138686   -17.7839 5.9791 4.67541  -54.3482 27.8823 -2.06022  2.72005 -1.0603 -7.35521  1.01246 -3.03453 0.570371  17.0666 4.33393 -5.88833  53.2997 28.8698 0.669587  -3.57279 -1.32494 11.5709  -8.54227 -9.29958 -0.54969 
-0.000496277 41.1842 0.0171935 0.133057 0.724629 0.0646122 2.343 4.59966 -0.392467  -0.0152929 1.47098 0.0181525  -2.60561 -7.33364 -0.363211  0.00600074 0.0964181 0.00742971  -0 0 -0   -3.62322 5.28503 0.26817  0.00578109 0.0265774 -0.00497684  3.60446 -6.54638 -0.359392  0.00314486 0.23348 0.000458043  -0 0 -0   -0.136603 0.00786509 -0.107745  -0.000353535 0.0259508 -0.225309  -0.000330366 0.0258833 -0.225316  -0.000306899 0.0258159 -0.225324  -0.0774805 -2.64819 0.305458  -0.471287 1.06214 -0.138686   -17.7832 5.97982 4.67255  -54.3482 27.8823 -2.06022  2.72005 -1.0603 -7.35521  1.01246 -3.03453 0.570371  17.0663 4.33003 -5.88726  53.2997 28.8698 0.669587  -3.57279 -1.32494 11.5709  -8.54227 -9.29958 -0.54969 
-0.00042766 41.1843 0.0217249 0.134177 0.726243 0.0697301 2.34222 4.60082 -0.402194  -0.0151335 1.47173 0.0179955  -2.60334 -7.3345 -0.36035  0.00600376 0.074282 0.00731593  -0 0 -0   -3.62488 5.28768 0.273028  0.00579175 0.0260943 -0.00507362  3.62526 -6.53831 -0.372305  0.00316401 0.164572 0.000542968  -0 0 -0   -0.135825 0.00700568 -0.107309  -0.000290211 0.0247121 -0.224781  -0.00026716 0.0246446 -0.224788  -0.000243813 0.0245772 -0.224796  -0.0761138 -2.64768 0.329348  -0.473951 1.0473 -0.128807   -17.787 5.96694 4.66078  -54.3499 27.9468 -2.02937  2.72809 -1.06405 -7.37747  1.0441 -3.06927 0.555707  17.0593 4.3229 -5.88526  53.2664 28.8192 0.695282  -3.57546 -1.32625 11.5799  -8.52138 -9.17018 -0.483153 
-0.000531318 41.1844 0.0261264 0.135144 0.727619 0.0904288 2.34142 4.60231 -0.411988  -0.0149589 1.47213 0.017825  -2.61965 -7.33521 -0.357172  0.00600833 0.0391426 0.00719567  -0 0 -0   -3.62669 5.30168 0.277901  0.00579884 0.0258799 -0.00517415  3.56977 -6.55598 -0.387552  0.00318888 0.170156 0.000632369  -0 0 -0   -0.135047 0.00618091 -0.106864  -0.000220781 0.0236628 -0.224314  -0.000197848 0.0235953 -0.224322  -0.000174623 0.0235278 -0.224329  -0.0765215 -2.64701 0.312113  -0.476534 1.06113 -0.124261   -17.7882 5.93479 4.63982  -54.3467 28.0779 -1.97579  2.74954 -1.07406 -7.43685  0.990968 -3.25148 0.601528  17.0423 4.34362 -5.88375  53.2427 28.8142 0.667572  -3.61865 -1.3475 11.7252  -8.56699 -9.45063 -0.541268 
-0.000346402 41.1845 0.0261435 0.136424 0.728823 0.090449 2.33984 4.60423 -0.411919  -0.0147686 1.47201 0.0176407  -2.61963 -7.33486 -0.357285  0.00600841 0.0391421 0.00706884  -0 0 -0   -3.62809 5.3017 0.277907  0.00580235 0.0258712 -0.00527853  3.56975 -6.55595 -0.387554  0.00322029 0.170156 0.000726302  -0 0 -0   -0.134269 0.00542082 -0.106412  -0.000145155 0.0227957 -0.223896  -0.000122341 0.0227281 -0.223904  -9.92373e-005 0.0226606 -0.223911  -0.0759993 -2.64579 0.312199  -0.478088 1.06113 -0.124261   -17.7902 5.93475 4.63951  -54.3443 28.0778 -1.97614  2.74954 -1.07406 -7.43685  0.990967 -3.25148 0.601529  17.0423 4.34362 -5.88375  53.2427 28.8142 0.667571  -3.61865 -1.3475 11.7252  -8.56699 -9.45063 -0.541269 
-0.000170089 41.1847 0.0287614 0.137718 0.729921 0.0941289 2.33976 4.60667 -0.430911  -0.0145625 1.47123 0.0174425  -2.62574 -7.32297 -0.364413  0.00600257 0.0881777 0.00693532  -0 0 -0   -3.62988 5.30223 0.280927  0.00580228 0.0260054 -0.00538689  3.61485 -6.54548 -0.412916  0.00325786 0.203462 0.000824825  -0 0 -0   -0.133493 0.00475546 -0.105954  -6.32414e-005 0.0221035 -0.223512  -4.05466e-005 0.0220359 -0.22352  -1.75654e-005 0.0219683 -0.223528  -0.0722293 -2.64342 0.379825  -0.478473 1.06028 -0.0746923   -17.7918 5.94286 4.64119  -54.3436 28.0733 -1.98427  2.75127 -1.07487 -7.44165  0.984771 -3.20376 0.546199  17.0342 4.36673 -5.89531  53.2042 28.7187 0.72143  -3.63196 -1.35408 11.7701  -8.74836 -9.34518 -0.400178 
-0.000317081 41.1849 0.0321527 0.138866 0.730614 0.125184 2.33729 4.61076 -0.418323  -0.0143402 1.46961 0.0172301  -2.61448 -7.34104 -0.393919  0.00600676 0.0546261 0.00679499  -0 0 -0   -3.62901 5.31568 0.253547  0.00579862 0.0262196 -0.00549934  3.58431 -6.58227 -0.390227  0.00330248 0.21184 0.000927996  -0 0 -0   -0.132721 0.00421488 -0.105493  2.50534e-005 0.0215792 -0.22315  4.76285e-005 0.0215115 -0.223158  7.04869e-005 0.0214439 -0.223166  -0.0720143 -2.63176 0.368562  -0.508529 1.0601 -0.0437239   -17.7952 5.97869 4.65037  -54.3384 28.0962 -2.00601  2.76978 -1.08353 -7.49291  0.930805 -3.27531 0.572138  17.0384 4.56714 -5.99632  53.1461 28.366 0.830026  -3.71858 -1.3972 12.0622  -8.75119 -9.25987 -0.641687 
-1.9773e-005 41.185 0.0354934 0.140437 0.731992 0.127491 2.33755 4.61449 -0.436953  -0.014101 1.46525 0.0170033  -2.62415 -7.32538 -0.385331  0.0060036 0.0831152 0.00664775  -0 0 -0   -3.62991 5.31838 0.244529  0.00579136 0.0264508 -0.00561598  3.62066 -6.57132 -0.402034  0.00335418 0.209623 0.00103587  -0 0 -0   -0.131954 0.00382913 -0.10503  0.000119824 0.0212153 -0.222796  0.000142279 0.0211477 -0.222805  0.000165014 0.0210801 -0.222813  -0.0713267 -2.6295 0.362913  -0.503591 1.06278 -0.0406514   -17.7948 5.98282 4.6553  -54.3406 28.0899 -2.01448  2.77091 -1.08406 -7.49605  0.978289 -3.2257 0.522017  17.0257 4.552 -5.99647  53.119 28.3197 0.842368  -3.72807 -1.40196 12.0942  -8.90236 -9.50037 -0.402067 
